<svg width="611" height="39" viewBox="0 0 611 39" fill="none" xmlns="http://www.w3.org/2000/svg">
<path d="M30.1598 36.7C30.3264 36.9667 30.4098 37.1833 30.4098 37.35C30.4098 37.7833 30.0931 38 29.4598 38H25.4598C24.9264 38 24.5098 37.7833 24.2098 37.35L13.0098 21.9C12.8098 21.6 12.5598 21.45 12.2598 21.45C11.9931 21.45 11.7431 21.5667 11.5098 21.8L6.05977 27.55C5.72643 27.9167 5.55977 28.35 5.55977 28.85V36.95C5.55977 37.2833 5.45977 37.55 5.25977 37.75C5.0931 37.9167 4.8431 38 4.50977 38H1.15977C0.826433 38 0.559766 37.9167 0.359766 37.75C0.193099 37.55 0.109766 37.2833 0.109766 36.95V2.4C0.109766 2.06666 0.193099 1.81666 0.359766 1.65C0.559766 1.45 0.826433 1.35 1.15977 1.35H4.50977C4.8431 1.35 5.0931 1.45 5.25977 1.65C5.45977 1.81666 5.55977 2.06666 5.55977 2.4V19.05C5.55977 19.65 5.75977 19.95 6.15977 19.95C6.35977 19.95 6.5931 19.8167 6.85977 19.55L23.4098 1.9C23.7431 1.53333 24.1598 1.35 24.6598 1.35H29.0098C29.2764 1.35 29.4931 1.41666 29.6598 1.55C29.8264 1.65 29.9098 1.78333 29.9098 1.95C29.9098 2.11667 29.7931 2.35 29.5598 2.65L16.6098 16.4C16.3764 16.6333 16.2598 16.9 16.2598 17.2C16.2598 17.4 16.3431 17.6333 16.5098 17.9L30.1598 36.7ZM58.7008 25.55C58.7008 26.0167 58.3508 26.25 57.6508 26.25H39.8508C39.4841 26.25 39.2174 26.35 39.0508 26.55C38.8841 26.75 38.8174 27.0167 38.8508 27.35C39.2174 29.35 39.9841 30.9667 41.1508 32.2C42.3508 33.4333 43.9841 34.05 46.0508 34.05C47.6174 34.05 48.8674 33.7667 49.8008 33.2C50.7341 32.6 51.5508 31.6333 52.2508 30.3C52.5174 29.8333 52.8341 29.6 53.2008 29.6C53.3008 29.6 53.4508 29.6333 53.6508 29.7L56.6508 30.65C57.1508 30.7833 57.4008 31.0667 57.4008 31.5C57.4008 31.7333 57.3674 31.9 57.3008 32C56.3674 33.9667 54.9674 35.5667 53.1008 36.8C51.2674 38.0333 48.9174 38.65 46.0508 38.65C42.8174 38.65 40.2674 37.9 38.4008 36.4C36.5341 34.8667 35.2341 33.0667 34.5008 31C33.8008 28.9 33.4508 26.8667 33.4508 24.9C33.4508 22.9333 33.8008 20.9167 34.5008 18.85C35.2341 16.75 36.5341 14.95 38.4008 13.45C40.2674 11.9167 42.8174 11.15 46.0508 11.15C49.2841 11.15 51.8341 11.9167 53.7008 13.45C55.6008 14.95 56.9008 16.75 57.6008 18.85C58.3341 20.9167 58.7008 22.9333 58.7008 24.9V25.55ZM46.0508 15.75C44.2841 15.75 42.8341 16.2167 41.7008 17.15C40.5674 18.0833 39.7508 19.3333 39.2508 20.9C39.2174 21 39.2008 21.1167 39.2008 21.25C39.2008 21.7833 39.5174 22.05 40.1508 22.05H52.0008C52.3674 22.05 52.6341 21.9667 52.8008 21.8C53.0008 21.6 53.0508 21.35 52.9508 21.05C52.4841 19.45 51.6674 18.1667 50.5008 17.2C49.3674 16.2333 47.8841 15.75 46.0508 15.75ZM70.4871 36.95C70.4871 37.2833 70.3871 37.55 70.1871 37.75C70.0204 37.9167 69.7704 38 69.4371 38H66.1871C65.8538 38 65.5871 37.9167 65.3871 37.75C65.2204 37.55 65.1371 37.2833 65.1371 36.95V2.4C65.1371 2.06666 65.2204 1.81666 65.3871 1.65C65.5871 1.45 65.8538 1.35 66.1871 1.35H69.4371C69.7704 1.35 70.0204 1.45 70.1871 1.65C70.3871 1.81666 70.4871 2.06666 70.4871 2.4V36.95ZM86.9496 28.35C87.0163 28.55 87.1163 28.7167 87.2496 28.85C87.3829 28.9833 87.5163 29.05 87.6496 29.05C87.9496 29.05 88.1829 28.8167 88.3496 28.35L93.7496 12.65C93.9496 12.0833 94.3496 11.8 94.9496 11.8H98.4496C99.0829 11.8 99.3996 12.0667 99.3996 12.6L99.2996 13L90.5996 37.15C90.3996 37.7167 89.9996 38 89.3996 38H85.8496C85.2496 38 84.8496 37.7167 84.6496 37.15L75.9496 13L75.8496 12.6C75.8496 12.0667 76.1663 11.8 76.7996 11.8H80.3496C80.9496 11.8 81.3496 12.0833 81.5496 12.65L86.9496 28.35ZM107.287 6.6C106.387 6.6 105.62 6.28333 104.987 5.65C104.353 5.01667 104.037 4.25 104.037 3.35C104.037 2.45 104.353 1.68333 104.987 1.05C105.62 0.416666 106.387 0.0999992 107.287 0.0999992C108.187 0.0999992 108.953 0.416666 109.587 1.05C110.22 1.68333 110.537 2.45 110.537 3.35C110.537 4.25 110.22 5.01667 109.587 5.65C108.953 6.28333 108.187 6.6 107.287 6.6ZM109.937 36.95C109.937 37.2833 109.837 37.55 109.637 37.75C109.47 37.9167 109.22 38 108.887 38H105.637C105.303 38 105.037 37.9167 104.837 37.75C104.67 37.55 104.587 37.2833 104.587 36.95V12.85C104.587 12.5167 104.67 12.2667 104.837 12.1C105.037 11.9 105.303 11.8 105.637 11.8H108.887C109.22 11.8 109.47 11.9 109.637 12.1C109.837 12.2667 109.937 12.5167 109.937 12.85V36.95ZM131.505 11.15C134.005 11.15 136.322 11.8833 138.455 13.35C140.588 14.7833 141.655 17.4333 141.655 21.3V36.95C141.655 37.2833 141.555 37.55 141.355 37.75C141.188 37.9167 140.938 38 140.605 38H137.355C137.022 38 136.755 37.9167 136.555 37.75C136.388 37.55 136.305 37.2833 136.305 36.95V22.15C136.205 20.25 135.672 18.75 134.705 17.65C133.772 16.55 132.555 16 131.055 16C129.988 16 128.922 16.3 127.855 16.9C126.822 17.4667 125.938 18.35 125.205 19.55C124.472 20.7167 124.038 22.1833 123.905 23.95V36.95C123.905 37.2833 123.805 37.55 123.605 37.75C123.438 37.9167 123.188 38 122.855 38H119.605C119.272 38 119.005 37.9167 118.805 37.75C118.638 37.55 118.555 37.2833 118.555 36.95V12.85C118.555 12.5167 118.638 12.2667 118.805 12.1C119.005 11.9 119.272 11.8 119.605 11.8H122.855C123.188 11.8 123.438 11.9 123.605 12.1C123.805 12.2667 123.905 12.5167 123.905 12.85V13.45C123.905 13.6833 123.938 13.8667 124.005 14C124.105 14.1 124.222 14.15 124.355 14.15C124.622 14.15 124.972 13.9667 125.405 13.6C126.338 12.8333 127.338 12.2333 128.405 11.8C129.505 11.3667 130.538 11.15 131.505 11.15ZM185.98 16.6C186.313 16.6 186.563 16.5167 186.73 16.35C186.93 16.15 187.03 15.8833 187.03 15.55V2.4C187.03 2.06666 187.113 1.81666 187.28 1.65C187.48 1.45 187.746 1.35 188.08 1.35H191.43C191.763 1.35 192.013 1.45 192.18 1.65C192.38 1.81666 192.48 2.06666 192.48 2.4V36.95C192.48 37.2833 192.38 37.55 192.18 37.75C192.013 37.9167 191.763 38 191.43 38H188.08C187.746 38 187.48 37.9167 187.28 37.75C187.113 37.55 187.03 37.2833 187.03 36.95V22.45C187.03 22.1167 186.93 21.8667 186.73 21.7C186.563 21.5 186.313 21.4 185.98 21.4H168.28C167.946 21.4 167.68 21.5 167.48 21.7C167.313 21.8667 167.23 22.1167 167.23 22.45V36.95C167.23 37.2833 167.13 37.55 166.93 37.75C166.763 37.9167 166.513 38 166.18 38H162.83C162.496 38 162.23 37.9167 162.03 37.75C161.863 37.55 161.78 37.2833 161.78 36.95V2.4C161.78 2.06666 161.863 1.81666 162.03 1.65C162.23 1.45 162.496 1.35 162.83 1.35H166.18C166.513 1.35 166.763 1.45 166.93 1.65C167.13 1.81666 167.23 2.06666 167.23 2.4V15.55C167.23 15.8833 167.313 16.15 167.48 16.35C167.68 16.5167 167.946 16.6 168.28 16.6H185.98ZM224.912 25.55C224.912 26.0167 224.562 26.25 223.862 26.25H206.062C205.695 26.25 205.428 26.35 205.262 26.55C205.095 26.75 205.028 27.0167 205.062 27.35C205.428 29.35 206.195 30.9667 207.362 32.2C208.562 33.4333 210.195 34.05 212.262 34.05C213.828 34.05 215.078 33.7667 216.012 33.2C216.945 32.6 217.762 31.6333 218.462 30.3C218.728 29.8333 219.045 29.6 219.412 29.6C219.512 29.6 219.662 29.6333 219.862 29.7L222.862 30.65C223.362 30.7833 223.612 31.0667 223.612 31.5C223.612 31.7333 223.578 31.9 223.512 32C222.578 33.9667 221.178 35.5667 219.312 36.8C217.478 38.0333 215.128 38.65 212.262 38.65C209.028 38.65 206.478 37.9 204.612 36.4C202.745 34.8667 201.445 33.0667 200.712 31C200.012 28.9 199.662 26.8667 199.662 24.9C199.662 22.9333 200.012 20.9167 200.712 18.85C201.445 16.75 202.745 14.95 204.612 13.45C206.478 11.9167 209.028 11.15 212.262 11.15C215.495 11.15 218.045 11.9167 219.912 13.45C221.812 14.95 223.112 16.75 223.812 18.85C224.545 20.9167 224.912 22.9333 224.912 24.9V25.55ZM212.262 15.75C210.495 15.75 209.045 16.2167 207.912 17.15C206.778 18.0833 205.962 19.3333 205.462 20.9C205.428 21 205.412 21.1167 205.412 21.25C205.412 21.7833 205.728 22.05 206.362 22.05H218.212C218.578 22.05 218.845 21.9667 219.012 21.8C219.212 21.6 219.262 21.35 219.162 21.05C218.695 19.45 217.878 18.1667 216.712 17.2C215.578 16.2333 214.095 15.75 212.262 15.75ZM234.948 11.8C235.281 11.8 235.531 11.9 235.698 12.1C235.898 12.2667 235.998 12.5167 235.998 12.85V14.35C235.998 14.6167 236.031 14.8333 236.098 15C236.198 15.1333 236.315 15.2 236.448 15.2C236.681 15.2 236.915 15.05 237.148 14.75C238.948 12.75 241.215 11.65 243.948 11.45H244.048C244.381 11.45 244.631 11.55 244.798 11.75C244.965 11.9167 245.048 12.15 245.048 12.45V15.9C245.048 16.6 244.848 16.95 244.448 16.95C244.315 16.9167 244.115 16.9 243.848 16.9C242.715 16.9 241.565 17.15 240.398 17.65C239.265 18.15 238.281 18.8667 237.448 19.8C236.648 20.7333 236.165 21.7833 235.998 22.95V36.95C235.998 37.2833 235.898 37.55 235.698 37.75C235.531 37.9167 235.281 38 234.948 38H231.698C231.365 38 231.098 37.9167 230.898 37.75C230.731 37.55 230.648 37.2833 230.648 36.95V12.85C230.648 12.5167 230.731 12.2667 230.898 12.1C231.098 11.9 231.365 11.8 231.698 11.8H234.948ZM272.679 26.7C272.846 27.1667 273.063 27.4 273.329 27.4C273.663 27.4 273.896 27.15 274.029 26.65L278.079 12.7C278.246 12.1 278.629 11.8 279.229 11.8H282.579C282.946 11.8 283.213 11.9167 283.379 12.15C283.546 12.35 283.579 12.6333 283.479 13L275.979 37.15C275.779 37.7167 275.396 38 274.829 38H272.229C271.663 38 271.279 37.7167 271.079 37.15L266.529 22.6C266.396 22.1 266.179 21.85 265.879 21.85C265.613 21.85 265.396 22.1 265.229 22.6L260.679 37.15C260.479 37.7167 260.096 38 259.529 38H256.929C256.363 38 255.979 37.7167 255.779 37.15L248.229 13C248.196 12.9 248.179 12.7833 248.179 12.65C248.179 12.3833 248.263 12.1833 248.429 12.05C248.596 11.8833 248.829 11.8 249.129 11.8H252.479C253.113 11.8 253.496 12.1 253.629 12.7L257.729 26.75C257.896 27.2167 258.129 27.45 258.429 27.45C258.696 27.45 258.913 27.2167 259.079 26.75L263.429 12.65C263.629 12.0833 264.013 11.8 264.579 11.8H267.179C267.746 11.8 268.129 12.0833 268.329 12.65L272.679 26.7ZM311.001 30.1C311.068 31.1 311.235 31.8833 311.501 32.45C311.768 32.9833 312.335 33.4 313.201 33.7C313.735 33.9 314.001 34.1833 314.001 34.55C314.001 34.6833 313.951 34.85 313.851 35.05L312.451 37.85C312.185 38.45 311.751 38.6667 311.151 38.5C309.218 38.0667 307.885 37.1167 307.151 35.65C306.985 35.2833 306.818 35.1 306.651 35.1C306.485 35.1 306.301 35.2333 306.101 35.5C304.368 37.6 301.551 38.65 297.651 38.65C295.285 38.65 293.368 38.2333 291.901 37.4C290.468 36.5667 289.451 35.5667 288.851 34.4C288.251 33.2 287.951 32.05 287.951 30.95C287.951 29.15 288.501 27.5333 289.601 26.1C290.735 24.6667 292.418 23.6667 294.651 23.1C296.185 22.7333 298.318 22.45 301.051 22.25C302.918 22.1167 304.268 21.9833 305.101 21.85C305.768 21.75 306.068 21.35 306.001 20.65C305.835 19.15 305.335 17.95 304.501 17.05C303.701 16.1167 302.351 15.65 300.451 15.65C299.218 15.65 298.035 15.9167 296.901 16.45C295.801 16.95 294.951 17.8333 294.351 19.1C294.051 19.7333 293.618 19.95 293.051 19.75L290.001 18.9C289.468 18.7333 289.201 18.45 289.201 18.05C289.201 17.95 289.235 17.8 289.301 17.6C290.101 15.6667 291.418 14.1333 293.251 13C295.085 11.8333 297.468 11.25 300.401 11.25C303.268 11.25 305.701 12 307.701 13.5C309.701 14.9667 310.768 17.1 310.901 19.9C310.935 21.2333 310.951 23.0167 310.951 25.25C310.985 27.4833 311.001 29.1 311.001 30.1ZM298.501 34.35C299.401 34.35 300.385 34.1333 301.451 33.7C302.551 33.2667 303.518 32.5167 304.351 31.45C305.218 30.35 305.751 28.8833 305.951 27.05V26.95C305.951 26.6167 305.851 26.3667 305.651 26.2C305.451 26 305.185 25.9333 304.851 26L302.901 26.2C300.735 26.4 298.968 26.6333 297.601 26.9C296.268 27.1333 295.118 27.5667 294.151 28.2C293.218 28.8 292.751 29.6667 292.751 30.8C292.751 32.1667 293.351 33.1 294.551 33.6C295.751 34.1 297.068 34.35 298.501 34.35ZM333.019 11.15C335.519 11.15 337.835 11.8833 339.969 13.35C342.102 14.7833 343.169 17.4333 343.169 21.3V36.95C343.169 37.2833 343.069 37.55 342.869 37.75C342.702 37.9167 342.452 38 342.119 38H338.869C338.535 38 338.269 37.9167 338.069 37.75C337.902 37.55 337.819 37.2833 337.819 36.95V22.15C337.719 20.25 337.185 18.75 336.219 17.65C335.285 16.55 334.069 16 332.569 16C331.502 16 330.435 16.3 329.369 16.9C328.335 17.4667 327.452 18.35 326.719 19.55C325.985 20.7167 325.552 22.1833 325.419 23.95V36.95C325.419 37.2833 325.319 37.55 325.119 37.75C324.952 37.9167 324.702 38 324.369 38H321.119C320.785 38 320.519 37.9167 320.319 37.75C320.152 37.55 320.069 37.2833 320.069 36.95V12.85C320.069 12.5167 320.152 12.2667 320.319 12.1C320.519 11.9 320.785 11.8 321.119 11.8H324.369C324.702 11.8 324.952 11.9 325.119 12.1C325.319 12.2667 325.419 12.5167 325.419 12.85V13.45C325.419 13.6833 325.452 13.8667 325.519 14C325.619 14.1 325.735 14.15 325.869 14.15C326.135 14.15 326.485 13.9667 326.919 13.6C327.852 12.8333 328.852 12.2333 329.919 11.8C331.019 11.3667 332.052 11.15 333.019 11.15ZM368.263 13.25C368.496 13.4833 368.73 13.6 368.963 13.6C369.296 13.6 369.463 13.3167 369.463 12.75V2.4C369.463 2.06666 369.546 1.81666 369.713 1.65C369.913 1.45 370.18 1.35 370.513 1.35H373.513C373.846 1.35 374.096 1.45 374.263 1.65C374.463 1.81666 374.563 2.06666 374.563 2.4V36.95C374.563 37.2833 374.463 37.55 374.263 37.75C374.096 37.9167 373.846 38 373.513 38H370.513C370.18 38 369.913 37.9167 369.713 37.75C369.546 37.55 369.463 37.2833 369.463 36.95C369.463 36.45 369.313 36.2 369.013 36.2C368.78 36.2 368.53 36.3167 368.263 36.55C366.53 37.95 364.346 38.65 361.713 38.65C358.546 38.65 356.063 37.9 354.263 36.4C352.496 34.8667 351.296 33.0667 350.663 31C350.03 28.9333 349.713 26.9 349.713 24.9C349.713 22.9 350.03 20.8667 350.663 18.8C351.296 16.7333 352.496 14.95 354.263 13.45C356.063 11.9167 358.546 11.15 361.713 11.15C364.346 11.15 366.53 11.85 368.263 13.25ZM362.263 34.05C364.796 34.05 366.63 33.1833 367.763 31.45C368.93 29.6833 369.513 27.5 369.513 24.9C369.513 22.3 368.93 20.1333 367.763 18.4C366.63 16.6333 364.796 15.75 362.263 15.75C359.696 15.75 357.796 16.6333 356.563 18.4C355.33 20.1667 354.713 22.3333 354.713 24.9C354.713 27.4667 355.33 29.6333 356.563 31.4C357.796 33.1667 359.696 34.05 362.263 34.05ZM404.654 30.1C404.72 31.1 404.887 31.8833 405.154 32.45C405.42 32.9833 405.987 33.4 406.854 33.7C407.387 33.9 407.654 34.1833 407.654 34.55C407.654 34.6833 407.604 34.85 407.504 35.05L406.104 37.85C405.837 38.45 405.404 38.6667 404.804 38.5C402.87 38.0667 401.537 37.1167 400.804 35.65C400.637 35.2833 400.47 35.1 400.304 35.1C400.137 35.1 399.954 35.2333 399.754 35.5C398.02 37.6 395.204 38.65 391.304 38.65C388.937 38.65 387.02 38.2333 385.554 37.4C384.12 36.5667 383.104 35.5667 382.504 34.4C381.904 33.2 381.604 32.05 381.604 30.95C381.604 29.15 382.154 27.5333 383.254 26.1C384.387 24.6667 386.07 23.6667 388.304 23.1C389.837 22.7333 391.97 22.45 394.704 22.25C396.57 22.1167 397.92 21.9833 398.754 21.85C399.42 21.75 399.72 21.35 399.654 20.65C399.487 19.15 398.987 17.95 398.154 17.05C397.354 16.1167 396.004 15.65 394.104 15.65C392.87 15.65 391.687 15.9167 390.554 16.45C389.454 16.95 388.604 17.8333 388.004 19.1C387.704 19.7333 387.27 19.95 386.704 19.75L383.654 18.9C383.12 18.7333 382.854 18.45 382.854 18.05C382.854 17.95 382.887 17.8 382.954 17.6C383.754 15.6667 385.07 14.1333 386.904 13C388.737 11.8333 391.12 11.25 394.054 11.25C396.92 11.25 399.354 12 401.354 13.5C403.354 14.9667 404.42 17.1 404.554 19.9C404.587 21.2333 404.604 23.0167 404.604 25.25C404.637 27.4833 404.654 29.1 404.654 30.1ZM392.154 34.35C393.054 34.35 394.037 34.1333 395.104 33.7C396.204 33.2667 397.17 32.5167 398.004 31.45C398.87 30.35 399.404 28.8833 399.604 27.05V26.95C399.604 26.6167 399.504 26.3667 399.304 26.2C399.104 26 398.837 25.9333 398.504 26L396.554 26.2C394.387 26.4 392.62 26.6333 391.254 26.9C389.92 27.1333 388.77 27.5667 387.804 28.2C386.87 28.8 386.404 29.6667 386.404 30.8C386.404 32.1667 387.004 33.1 388.204 33.6C389.404 34.1 390.72 34.35 392.154 34.35ZM452.552 1.35C452.885 1.35 453.135 1.45 453.302 1.65C453.502 1.81666 453.602 2.06666 453.602 2.4V5.1C453.602 5.43333 453.502 5.7 453.302 5.9C453.135 6.06667 452.885 6.15 452.552 6.15H441.552C441.218 6.15 440.952 6.25 440.752 6.45C440.585 6.61666 440.502 6.86666 440.502 7.2V36.95C440.502 37.2833 440.402 37.55 440.202 37.75C440.035 37.9167 439.785 38 439.452 38H436.102C435.768 38 435.502 37.9167 435.302 37.75C435.135 37.55 435.052 37.2833 435.052 36.95V7.2C435.052 6.86666 434.952 6.61666 434.752 6.45C434.585 6.25 434.335 6.15 434.002 6.15H423.002C422.668 6.15 422.402 6.06667 422.202 5.9C422.035 5.7 421.952 5.43333 421.952 5.1V2.4C421.952 2.06666 422.035 1.81666 422.202 1.65C422.402 1.45 422.668 1.35 423.002 1.35H452.552ZM480.728 30.1C480.794 31.1 480.961 31.8833 481.228 32.45C481.494 32.9833 482.061 33.4 482.928 33.7C483.461 33.9 483.728 34.1833 483.728 34.55C483.728 34.6833 483.678 34.85 483.578 35.05L482.178 37.85C481.911 38.45 481.478 38.6667 480.878 38.5C478.944 38.0667 477.611 37.1167 476.878 35.65C476.711 35.2833 476.544 35.1 476.378 35.1C476.211 35.1 476.028 35.2333 475.828 35.5C474.094 37.6 471.278 38.65 467.378 38.65C465.011 38.65 463.094 38.2333 461.628 37.4C460.194 36.5667 459.178 35.5667 458.578 34.4C457.978 33.2 457.678 32.05 457.678 30.95C457.678 29.15 458.228 27.5333 459.328 26.1C460.461 24.6667 462.144 23.6667 464.378 23.1C465.911 22.7333 468.044 22.45 470.778 22.25C472.644 22.1167 473.994 21.9833 474.828 21.85C475.494 21.75 475.794 21.35 475.728 20.65C475.561 19.15 475.061 17.95 474.228 17.05C473.428 16.1167 472.078 15.65 470.178 15.65C468.944 15.65 467.761 15.9167 466.628 16.45C465.528 16.95 464.678 17.8333 464.078 19.1C463.778 19.7333 463.344 19.95 462.778 19.75L459.728 18.9C459.194 18.7333 458.928 18.45 458.928 18.05C458.928 17.95 458.961 17.8 459.028 17.6C459.828 15.6667 461.144 14.1333 462.978 13C464.811 11.8333 467.194 11.25 470.128 11.25C472.994 11.25 475.428 12 477.428 13.5C479.428 14.9667 480.494 17.1 480.628 19.9C480.661 21.2333 480.678 23.0167 480.678 25.25C480.711 27.4833 480.728 29.1 480.728 30.1ZM468.228 34.35C469.128 34.35 470.111 34.1333 471.178 33.7C472.278 33.2667 473.244 32.5167 474.078 31.45C474.944 30.35 475.478 28.8833 475.678 27.05V26.95C475.678 26.6167 475.578 26.3667 475.378 26.2C475.178 26 474.911 25.9333 474.578 26L472.628 26.2C470.461 26.4 468.694 26.6333 467.328 26.9C465.994 27.1333 464.844 27.5667 463.878 28.2C462.944 28.8 462.478 29.6667 462.478 30.8C462.478 32.1667 463.078 33.1 464.278 33.6C465.478 34.1 466.794 34.35 468.228 34.35ZM502.745 11.15C505.245 11.15 507.562 11.8833 509.695 13.35C511.829 14.7833 512.895 17.4333 512.895 21.3V36.95C512.895 37.2833 512.795 37.55 512.595 37.75C512.429 37.9167 512.179 38 511.845 38H508.595C508.262 38 507.995 37.9167 507.795 37.75C507.629 37.55 507.545 37.2833 507.545 36.95V22.15C507.445 20.25 506.912 18.75 505.945 17.65C505.012 16.55 503.795 16 502.295 16C501.229 16 500.162 16.3 499.095 16.9C498.062 17.4667 497.179 18.35 496.445 19.55C495.712 20.7167 495.279 22.1833 495.145 23.95V36.95C495.145 37.2833 495.045 37.55 494.845 37.75C494.679 37.9167 494.429 38 494.095 38H490.845C490.512 38 490.245 37.9167 490.045 37.75C489.879 37.55 489.795 37.2833 489.795 36.95V12.85C489.795 12.5167 489.879 12.2667 490.045 12.1C490.245 11.9 490.512 11.8 490.845 11.8H494.095C494.429 11.8 494.679 11.9 494.845 12.1C495.045 12.2667 495.145 12.5167 495.145 12.85V13.45C495.145 13.6833 495.179 13.8667 495.245 14C495.345 14.1 495.462 14.15 495.595 14.15C495.862 14.15 496.212 13.9667 496.645 13.6C497.579 12.8333 498.579 12.2333 499.645 11.8C500.745 11.3667 501.779 11.15 502.745 11.15ZM537.989 13.25C538.223 13.4833 538.456 13.6 538.689 13.6C539.023 13.6 539.189 13.3167 539.189 12.75V2.4C539.189 2.06666 539.273 1.81666 539.439 1.65C539.639 1.45 539.906 1.35 540.239 1.35H543.239C543.573 1.35 543.823 1.45 543.989 1.65C544.189 1.81666 544.289 2.06666 544.289 2.4V36.95C544.289 37.2833 544.189 37.55 543.989 37.75C543.823 37.9167 543.573 38 543.239 38H540.239C539.906 38 539.639 37.9167 539.439 37.75C539.273 37.55 539.189 37.2833 539.189 36.95C539.189 36.45 539.039 36.2 538.739 36.2C538.506 36.2 538.256 36.3167 537.989 36.55C536.256 37.95 534.073 38.65 531.439 38.65C528.273 38.65 525.789 37.9 523.989 36.4C522.223 34.8667 521.023 33.0667 520.389 31C519.756 28.9333 519.439 26.9 519.439 24.9C519.439 22.9 519.756 20.8667 520.389 18.8C521.023 16.7333 522.223 14.95 523.989 13.45C525.789 11.9167 528.273 11.15 531.439 11.15C534.073 11.15 536.256 11.85 537.989 13.25ZM531.989 34.05C534.523 34.05 536.356 33.1833 537.489 31.45C538.656 29.6833 539.239 27.5 539.239 24.9C539.239 22.3 538.656 20.1333 537.489 18.4C536.356 16.6333 534.523 15.75 531.989 15.75C529.423 15.75 527.523 16.6333 526.289 18.4C525.056 20.1667 524.439 22.3333 524.439 24.9C524.439 27.4667 525.056 29.6333 526.289 31.4C527.523 33.1667 529.423 34.05 531.989 34.05ZM556.53 11.8C556.863 11.8 557.113 11.9 557.28 12.1C557.48 12.2667 557.58 12.5167 557.58 12.85V14.35C557.58 14.6167 557.613 14.8333 557.68 15C557.78 15.1333 557.897 15.2 558.03 15.2C558.263 15.2 558.497 15.05 558.73 14.75C560.53 12.75 562.797 11.65 565.53 11.45H565.63C565.963 11.45 566.213 11.55 566.38 11.75C566.547 11.9167 566.63 12.15 566.63 12.45V15.9C566.63 16.6 566.43 16.95 566.03 16.95C565.897 16.9167 565.697 16.9 565.43 16.9C564.297 16.9 563.147 17.15 561.98 17.65C560.847 18.15 559.863 18.8667 559.03 19.8C558.23 20.7333 557.747 21.7833 557.58 22.95V36.95C557.58 37.2833 557.48 37.55 557.28 37.75C557.113 37.9167 556.863 38 556.53 38H553.28C552.947 38 552.68 37.9167 552.48 37.75C552.313 37.55 552.23 37.2833 552.23 36.95V12.85C552.23 12.5167 552.313 12.2667 552.48 12.1C552.68 11.9 552.947 11.8 553.28 11.8H556.53ZM575.011 6.6C574.111 6.6 573.345 6.28333 572.711 5.65C572.078 5.01667 571.761 4.25 571.761 3.35C571.761 2.45 572.078 1.68333 572.711 1.05C573.345 0.416666 574.111 0.0999992 575.011 0.0999992C575.911 0.0999992 576.678 0.416666 577.311 1.05C577.945 1.68333 578.261 2.45 578.261 3.35C578.261 4.25 577.945 5.01667 577.311 5.65C576.678 6.28333 575.911 6.6 575.011 6.6ZM577.661 36.95C577.661 37.2833 577.561 37.55 577.361 37.75C577.195 37.9167 576.945 38 576.611 38H573.361C573.028 38 572.761 37.9167 572.561 37.75C572.395 37.55 572.311 37.2833 572.311 36.95V12.85C572.311 12.5167 572.395 12.2667 572.561 12.1C572.761 11.9 573.028 11.8 573.361 11.8H576.611C576.945 11.8 577.195 11.9 577.361 12.1C577.561 12.2667 577.661 12.5167 577.661 12.85V36.95ZM597.33 38.65C593.996 38.65 591.363 37.9 589.43 36.4C587.496 34.8667 586.163 33.0667 585.43 31C584.696 28.9 584.33 26.8667 584.33 24.9C584.33 22.9333 584.696 20.9167 585.43 18.85C586.163 16.75 587.496 14.95 589.43 13.45C591.363 11.9167 593.996 11.15 597.33 11.15C600.63 11.15 603.246 11.9167 605.18 13.45C607.113 14.95 608.446 16.75 609.18 18.85C609.946 20.9167 610.33 22.9333 610.33 24.9C610.33 26.8667 609.946 28.9 609.18 31C608.446 33.0667 607.113 34.8667 605.18 36.4C603.246 37.9 600.63 38.65 597.33 38.65ZM597.33 34.05C600.03 34.05 602.03 33.1667 603.33 31.4C604.63 29.6333 605.28 27.4667 605.28 24.9C605.28 22.3333 604.63 20.1667 603.33 18.4C602.03 16.6333 600.03 15.75 597.33 15.75C594.63 15.75 592.63 16.6333 591.33 18.4C590.03 20.1667 589.38 22.3333 589.38 24.9C589.38 27.4667 590.03 29.6333 591.33 31.4C592.63 33.1667 594.63 34.05 597.33 34.05Z" fill="black"/>
</svg>
