<svg width="814" height="100" viewBox="0 0 814 100" fill="none" xmlns="http://www.w3.org/2000/svg">
<path d="M25.1645 4.2L35.2645 50.1C35.5978 51.6333 35.8311 53.2 35.9645 54.8C36.1645 56.4 36.3311 58.1667 36.4645 60.1C37.1311 58.1 37.7645 56.3333 38.3645 54.8C39.0311 53.2667 39.7311 51.7333 40.4645 50.2L62.4645 4.2H77.5645L67.7645 77H56.7645L63.4645 27.1C63.5978 25.7667 63.7978 24.4 64.0645 23C64.3311 21.6 64.5645 20.1333 64.7645 18.6C64.1645 20.1333 63.5311 21.6 62.8645 23C62.2645 24.4 61.6311 25.7667 60.9645 27.1L36.9645 77.2H30.0645L19.1645 27.2C18.9645 26.2 18.6978 24.9333 18.3645 23.4C18.0311 21.8667 17.7311 20.2333 17.4645 18.5C17.3311 20.1 17.1978 21.6333 17.0645 23.1C16.9311 24.5 16.7978 25.8667 16.6645 27.2L9.86445 77H0.864453L9.76445 10.5L9.56445 4.2H25.1645ZM74.9262 92.7C77.0595 92.6333 78.9928 92.1667 80.7262 91.3C82.4595 90.5 83.9928 89.3667 85.3262 87.9C86.7262 86.4333 87.9928 84.7333 89.1262 82.8C90.3262 80.9333 91.3928 78.9333 92.3262 76.8L81.9262 27.7H92.1262C92.8595 31.0333 93.5262 34.2333 94.1262 37.3C94.7262 40.3 95.2928 43.2667 95.8262 46.2C96.4262 49.0667 96.9595 52 97.4262 55C97.8928 58 98.3262 61.1333 98.7262 64.4C99.8595 61.2 101.06 58.1333 102.326 55.2C103.593 52.2 104.893 49.2667 106.226 46.4C107.56 43.4667 108.96 40.4667 110.426 37.4C111.893 34.3333 113.426 31.1 115.026 27.7H124.326L100.226 79.8C98.4262 83.7333 96.3595 87.2 94.0262 90.2C91.6928 93.2 88.8928 95.5667 85.6262 97.3C82.4262 99.0333 78.5595 99.9333 74.0262 100L74.9262 92.7ZM155.27 4.2H176.07C180.07 4.2 183.703 4.83333 186.97 6.09999C190.303 7.3 192.97 9.26666 194.97 12C196.97 14.6667 197.97 18.2667 197.97 22.8C197.97 28.1333 196.77 32.7 194.37 36.5C192.037 40.2333 188.803 43.1 184.67 45.1C180.603 47.0333 175.903 48 170.57 48H161.47L157.57 77H146.67L155.57 10.5L155.27 4.2ZM166.27 12.5L162.67 39.9H171.67C174.803 39.9 177.47 39.1333 179.67 37.6C181.87 36.0667 183.537 34.0667 184.67 31.6C185.803 29.0667 186.37 26.3667 186.37 23.5C186.37 19.9667 185.403 17.2667 183.47 15.4C181.603 13.4667 178.87 12.5 175.27 12.5H166.27ZM222.872 26.4C225.472 26.4 227.872 26.8 230.072 27.6C232.272 28.4 234.039 29.6333 235.372 31.3C236.772 32.9667 237.472 35.1667 237.472 37.9C237.472 40.3667 236.806 42.7667 235.472 45.1C234.206 47.4333 232.239 49.5333 229.572 51.4C226.906 53.2667 223.539 54.7333 219.472 55.8C215.406 56.8667 210.606 57.3333 205.072 57.2V50.1C208.206 50.3 211.106 50.1 213.772 49.5C216.506 48.9 218.872 48.0333 220.872 46.9C222.872 45.7667 224.439 44.4333 225.572 42.9C226.706 41.3667 227.272 39.7667 227.272 38.1C227.272 36.7 226.772 35.6 225.772 34.8C224.772 34 223.472 33.6 221.872 33.6C219.339 33.6 217.106 34.2333 215.172 35.5C213.239 36.7667 211.606 38.4667 210.272 40.6C209.006 42.6667 208.039 45 207.372 47.6C206.706 50.1333 206.372 52.7 206.372 55.3C206.372 60.5667 207.472 64.4 209.672 66.8C211.939 69.2 214.906 70.4 218.572 70.4C220.572 70.4 222.772 70.0667 225.172 69.4C227.572 68.6667 230.039 67.6667 232.572 66.4L235.672 72.2C235.006 72.6667 234.072 73.2333 232.872 73.9C231.739 74.5667 230.372 75.2333 228.772 75.9C227.172 76.5667 225.372 77.1333 223.372 77.6C221.439 78.0667 219.372 78.3 217.172 78.3C212.239 78.3 208.239 77.3 205.172 75.3C202.172 73.3 199.972 70.6667 198.572 67.4C197.172 64.0667 196.472 60.4 196.472 56.4C196.472 52.8 197.039 49.2333 198.172 45.7C199.306 42.1 201.006 38.8667 203.272 36C205.539 33.0667 208.306 30.7333 211.572 29C214.839 27.2667 218.606 26.4 222.872 26.4ZM257.168 26.6C257.568 27.9333 257.835 29.4667 257.968 31.2C258.168 32.8667 258.235 34.5667 258.168 36.3C259.502 34.6333 261.068 33.0667 262.868 31.6C264.668 30.0667 266.668 28.8667 268.868 28C271.068 27.0667 273.302 26.6 275.568 26.6L272.168 37.3C269.102 37.3 266.335 38.1 263.868 39.7C261.468 41.3 259.235 43.5333 257.168 46.4L252.968 77H243.168L247.868 41C248.002 40.2667 248.102 39.5 248.168 38.7C248.235 37.8333 248.268 36.9667 248.268 36.1C248.268 34.9 248.168 33.5 247.968 31.9C247.768 30.2333 247.302 28.8 246.568 27.6L257.168 26.6ZM305.667 36.7C304.333 35.6333 302.9 34.8667 301.367 34.4C299.833 33.8667 298.233 33.6 296.567 33.6C295.233 33.6 293.9 33.8667 292.567 34.4C291.3 34.8667 290.267 35.6 289.467 36.6C288.667 37.6 288.267 38.8667 288.267 40.4C288.267 42 288.867 43.3333 290.067 44.4C291.333 45.4 292.867 46.3667 294.667 47.3C296.533 48.2333 298.4 49.2667 300.267 50.4C302.133 51.5333 303.667 52.9667 304.867 54.7C306.133 56.4333 306.767 58.7 306.767 61.5C306.767 65.2333 305.867 68.3333 304.067 70.8C302.267 73.2667 299.9 75.1333 296.967 76.4C294.033 77.6667 290.867 78.3 287.467 78.3C284.867 78.3 282.267 77.9 279.667 77.1C277.133 76.3667 274.767 75.3333 272.567 74L277.267 66.9C278.8 68.0333 280.433 69.0333 282.167 69.9C283.9 70.7 285.667 71.1 287.467 71.1C289 71.1 290.433 70.8 291.767 70.2C293.167 69.5333 294.267 68.6333 295.067 67.5C295.933 66.3 296.367 64.8667 296.367 63.2C296.367 61.4 295.733 59.9333 294.467 58.8C293.267 57.6667 291.733 56.6667 289.867 55.8C288.067 54.8667 286.233 53.8667 284.367 52.8C282.567 51.6667 281.033 50.3 279.767 48.7C278.5 47.1 277.867 45 277.867 42.4C277.867 38.6667 278.8 35.6333 280.667 33.3C282.533 30.9 284.933 29.1667 287.867 28.1C290.8 26.9667 293.867 26.4 297.067 26.4C299.267 26.4 301.5 26.6667 303.767 27.2C306.033 27.7333 308.067 28.5333 309.867 29.6L305.667 36.7ZM331.869 78.3C327.469 78.3 323.902 77.3 321.169 75.3C318.436 73.2333 316.436 70.5667 315.169 67.3C313.902 64.0333 313.269 60.5 313.269 56.7C313.269 53.1667 313.802 49.6 314.869 46C316.002 42.4 317.636 39.1333 319.769 36.2C321.902 33.2667 324.536 30.9 327.669 29.1C330.869 27.3 334.536 26.4 338.669 26.4C343.069 26.4 346.602 27.4 349.269 29.4C352.002 31.4 354.002 34.0333 355.269 37.3C356.602 40.5667 357.269 44.1 357.269 47.9C357.269 51.4333 356.702 55 355.569 58.6C354.436 62.2 352.802 65.5 350.669 68.5C348.536 71.4333 345.902 73.8 342.769 75.6C339.636 77.4 336.002 78.3 331.869 78.3ZM332.669 71.2C335.136 71.2 337.269 70.5333 339.069 69.2C340.869 67.8 342.369 65.9667 343.569 63.7C344.836 61.4333 345.769 58.9667 346.369 56.3C347.036 53.5667 347.369 50.8333 347.369 48.1C347.369 45.5 347.036 43.1 346.369 40.9C345.769 38.6333 344.769 36.8333 343.369 35.5C341.969 34.1667 340.102 33.5 337.769 33.5C335.369 33.5 333.236 34.1667 331.369 35.5C329.569 36.8333 328.069 38.6333 326.869 40.9C325.669 43.1667 324.736 45.6667 324.069 48.4C323.469 51.0667 323.169 53.7667 323.169 56.5C323.169 59.1 323.469 61.5333 324.069 63.8C324.736 66 325.769 67.8 327.169 69.2C328.569 70.5333 330.402 71.2 332.669 71.2ZM377.574 26.6C377.774 27.3333 377.94 28.3333 378.074 29.6C378.274 30.8 378.374 32.0333 378.374 33.3C379.774 32.1667 381.274 31.0667 382.874 30C384.54 28.9333 386.307 28.0667 388.174 27.4C390.04 26.6667 391.974 26.3 393.974 26.3C395.774 26.3 397.407 26.5333 398.874 27C400.34 27.4667 401.607 28.2 402.674 29.2C403.807 30.1333 404.674 31.4333 405.274 33.1C405.874 34.7 406.174 36.6667 406.174 39C406.174 40.6 406.074 42.2 405.874 43.8L402.174 71.4L402.374 77H391.774L395.974 45.7C396.107 44.9667 396.207 44.2333 396.274 43.5C396.34 42.7 396.374 41.9333 396.374 41.2C396.374 39.9333 396.207 38.8333 395.874 37.9C395.54 36.9 394.94 36.1333 394.074 35.6C393.274 35 392.107 34.7 390.574 34.7C389.44 34.7 388.24 34.9667 386.974 35.5C385.707 35.9667 384.474 36.5667 383.274 37.3C382.074 37.9667 381.007 38.6667 380.074 39.4C379.207 40.0667 378.54 40.6 378.074 41L373.174 77H363.574L368.374 41.7C368.507 40.7667 368.574 39.8333 368.574 38.9C368.64 37.9667 368.674 37.0667 368.674 36.2C368.674 34.8 368.574 33.5333 368.374 32.4C368.24 31.2667 368.074 30.3 367.874 29.5C367.674 28.7 367.44 28.1667 367.174 27.9L377.574 26.6ZM451.39 27.3H456.69C455.69 33.9667 454.824 39.5667 454.09 44.1C453.424 48.5667 452.89 52.2 452.49 55C452.09 57.7333 451.757 59.8667 451.49 61.4C451.29 62.9333 451.157 64.1 451.09 64.9C451.024 65.7 450.99 66.3667 450.99 66.9C450.99 67.9667 451.19 68.8667 451.59 69.6C451.99 70.3333 452.79 70.7 453.99 70.7C454.657 70.7 455.39 70.6 456.19 70.4C456.99 70.2 457.69 69.9667 458.29 69.7L459.69 75.3C458.424 76.1 456.99 76.7333 455.39 77.2C453.79 77.7333 452.257 78 450.79 78C448.524 78 446.657 77.2667 445.19 75.8C443.724 74.3333 442.89 72.5 442.69 70.3H442.29C440.557 72.9667 438.357 74.9667 435.69 76.3C433.09 77.6333 430.59 78.3 428.19 78.3C424.457 78.3 421.424 77.3333 419.09 75.4C416.757 73.4667 415.024 70.9333 413.89 67.8C412.824 64.6 412.29 61.1 412.29 57.3C412.29 53.6333 412.79 49.9667 413.79 46.3C414.857 42.6333 416.424 39.3 418.49 36.3C420.624 33.3 423.257 30.9 426.39 29.1C429.524 27.3 433.224 26.4 437.49 26.4C439.424 26.4 441.557 26.8333 443.89 27.7C446.29 28.5 448.39 29.9667 450.19 32.1V39.2C447.99 37.2667 445.89 35.8667 443.89 35C441.957 34.0667 439.957 33.6 437.89 33.6C435.29 33.6 432.99 34.2333 430.99 35.5C429.057 36.7 427.424 38.4333 426.09 40.7C424.757 42.9 423.757 45.4333 423.09 48.3C422.49 51.1 422.19 54.0333 422.19 57.1C422.19 60.8333 422.79 64.1 423.99 66.9C425.257 69.6333 427.29 71 430.09 71C432.224 71 434.09 70.2667 435.69 68.8C437.357 67.3333 438.757 65.3667 439.89 62.9C441.09 60.4333 442.09 57.6667 442.89 54.6C443.69 51.4667 444.29 48.2667 444.69 45L445.99 35.7L451.39 27.3ZM483.964 0.399997L474.464 71.4L474.564 77H463.864L473.464 5.9L473.264 0.399997H483.964ZM522.546 4.2C523.146 9.13333 523.713 13.6667 524.246 17.8C524.78 21.9333 525.28 25.8333 525.746 29.5C526.213 33.1 526.646 36.5667 527.046 39.9C527.446 43.2333 527.813 46.5667 528.146 49.9C528.48 53.1667 528.78 56.5667 529.046 60.1C530.18 56.4333 531.313 52.9 532.446 49.5C533.58 46.1 534.78 42.7333 536.046 39.4C537.38 36.0667 538.746 32.6 540.146 29C541.546 25.4 543.08 21.5667 544.746 17.5C546.413 13.4333 548.18 9 550.046 4.2H559.346C560.013 9.13333 560.613 13.6667 561.146 17.8C561.68 21.9333 562.18 25.8333 562.646 29.5C563.113 33.1 563.546 36.6 563.946 40C564.346 43.3333 564.68 46.6333 564.946 49.9C565.28 53.1667 565.546 56.5667 565.746 60.1C567.013 56.3 568.246 52.7333 569.446 49.4C570.646 46 571.88 42.6333 573.146 39.3C574.413 35.9667 575.746 32.5333 577.146 29C578.546 25.4667 580.046 21.6667 581.646 17.6C583.246 13.5333 585.013 9.06666 586.946 4.2H596.146L567.546 77.3H557.346C556.813 72.4333 556.246 68.0333 555.646 64.1C555.113 60.1667 554.613 56.5 554.146 53.1C553.746 49.7 553.346 46.4 552.946 43.2C552.613 40 552.28 36.8 551.946 33.6C551.68 30.3333 551.413 26.8667 551.146 23.2C549.946 26.8667 548.746 30.3667 547.546 33.7C546.413 37.0333 545.213 40.3 543.946 43.5C542.746 46.7 541.48 50 540.146 53.4C538.813 56.8 537.346 60.4667 535.746 64.4C534.213 68.2667 532.513 72.5667 530.646 77.3H520.546L511.146 4.2H522.546ZM614.767 26.4C617.367 26.4 619.767 26.8 621.967 27.6C624.167 28.4 625.933 29.6333 627.267 31.3C628.667 32.9667 629.367 35.1667 629.367 37.9C629.367 40.3667 628.7 42.7667 627.367 45.1C626.1 47.4333 624.133 49.5333 621.467 51.4C618.8 53.2667 615.433 54.7333 611.367 55.8C607.3 56.8667 602.5 57.3333 596.967 57.2V50.1C600.1 50.3 603 50.1 605.667 49.5C608.4 48.9 610.767 48.0333 612.767 46.9C614.767 45.7667 616.333 44.4333 617.467 42.9C618.6 41.3667 619.167 39.7667 619.167 38.1C619.167 36.7 618.667 35.6 617.667 34.8C616.667 34 615.367 33.6 613.767 33.6C611.233 33.6 609 34.2333 607.067 35.5C605.133 36.7667 603.5 38.4667 602.167 40.6C600.9 42.6667 599.933 45 599.267 47.6C598.6 50.1333 598.267 52.7 598.267 55.3C598.267 60.5667 599.367 64.4 601.567 66.8C603.833 69.2 606.8 70.4 610.467 70.4C612.467 70.4 614.667 70.0667 617.067 69.4C619.467 68.6667 621.933 67.6667 624.467 66.4L627.567 72.2C626.9 72.6667 625.967 73.2333 624.767 73.9C623.633 74.5667 622.267 75.2333 620.667 75.9C619.067 76.5667 617.267 77.1333 615.267 77.6C613.333 78.0667 611.267 78.3 609.067 78.3C604.133 78.3 600.133 77.3 597.067 75.3C594.067 73.3 591.867 70.6667 590.467 67.4C589.067 64.0667 588.367 60.4 588.367 56.4C588.367 52.8 588.933 49.2333 590.067 45.7C591.2 42.1 592.9 38.8667 595.167 36C597.433 33.0667 600.2 30.7333 603.467 29C606.733 27.2667 610.5 26.4 614.767 26.4ZM634.863 73.3L643.663 6L643.463 0.399997H654.063L649.863 32.3C650.796 31.3667 651.963 30.4667 653.363 29.6C654.83 28.6667 656.396 27.9 658.063 27.3C659.796 26.6333 661.53 26.3 663.263 26.3C666.863 26.3 669.796 27.2333 672.063 29.1C674.33 30.9 675.963 33.3667 676.963 36.5C677.963 39.6333 678.463 43.1333 678.463 47C678.463 51.1333 677.896 55.0667 676.763 58.8C675.696 62.5333 674.096 65.8667 671.963 68.8C669.83 71.7333 667.163 74.0667 663.963 75.8C660.763 77.4667 657.063 78.3 652.863 78.3C650.063 78.3 647.03 77.9 643.763 77.1C640.563 76.3 637.596 75.0333 634.863 73.3L640.363 66.5C642.363 68.3 644.43 69.5333 646.563 70.2C648.763 70.8 650.863 71.1 652.863 71.1C655.663 71.1 658.03 70.4333 659.963 69.1C661.896 67.7 663.496 65.8667 664.763 63.6C666.096 61.3333 667.063 58.8333 667.663 56.1C668.263 53.3667 668.563 50.6333 668.563 47.9C668.563 43.9 667.996 40.6333 666.863 38.1C665.73 35.5667 663.763 34.3 660.963 34.3C659.296 34.3 657.63 34.7 655.963 35.5C654.363 36.3 652.896 37.2667 651.563 38.4C650.296 39.4667 649.33 40.4 648.663 41.2L644.563 70.7L634.863 73.3ZM712.6 36.7C711.267 35.6333 709.834 34.8667 708.3 34.4C706.767 33.8667 705.167 33.6 703.5 33.6C702.167 33.6 700.834 33.8667 699.5 34.4C698.234 34.8667 697.2 35.6 696.4 36.6C695.6 37.6 695.2 38.8667 695.2 40.4C695.2 42 695.8 43.3333 697 44.4C698.267 45.4 699.8 46.3667 701.6 47.3C703.467 48.2333 705.334 49.2667 707.2 50.4C709.067 51.5333 710.6 52.9667 711.8 54.7C713.067 56.4333 713.7 58.7 713.7 61.5C713.7 65.2333 712.8 68.3333 711 70.8C709.2 73.2667 706.834 75.1333 703.9 76.4C700.967 77.6667 697.8 78.3 694.4 78.3C691.8 78.3 689.2 77.9 686.6 77.1C684.067 76.3667 681.7 75.3333 679.5 74L684.2 66.9C685.734 68.0333 687.367 69.0333 689.1 69.9C690.834 70.7 692.6 71.1 694.4 71.1C695.934 71.1 697.367 70.8 698.7 70.2C700.1 69.5333 701.2 68.6333 702 67.5C702.867 66.3 703.3 64.8667 703.3 63.2C703.3 61.4 702.667 59.9333 701.4 58.8C700.2 57.6667 698.667 56.6667 696.8 55.8C695 54.8667 693.167 53.8667 691.3 52.8C689.5 51.6667 687.967 50.3 686.7 48.7C685.434 47.1 684.8 45 684.8 42.4C684.8 38.6667 685.734 35.6333 687.6 33.3C689.467 30.9 691.867 29.1667 694.8 28.1C697.734 26.9667 700.8 26.4 704 26.4C706.2 26.4 708.434 26.6667 710.7 27.2C712.967 27.7333 715 28.5333 716.8 29.6L712.6 36.7ZM741.003 9.2C741.003 11.1333 740.269 12.9 738.803 14.5C737.403 16.0333 735.669 16.8 733.603 16.8C731.936 16.8 730.569 16.2667 729.503 15.2C728.436 14.0667 727.903 12.7 727.903 11.1C727.903 9.16666 728.636 7.43333 730.103 5.9C731.569 4.3 733.336 3.5 735.403 3.5C737.069 3.5 738.403 4.06666 739.403 5.19999C740.469 6.33333 741.003 7.66666 741.003 9.2ZM736.903 27.7L731.003 71.3L731.203 77H720.703L726.503 33.2L726.403 27.7H736.903ZM763.759 13.8C763.092 16.2 762.459 18.5 761.859 20.7C761.326 22.9 760.826 25.2333 760.359 27.7H771.759L769.359 34.9H759.259L755.459 64.6C755.392 64.8667 755.326 65.2667 755.259 65.8C755.259 66.2667 755.259 66.7 755.259 67.1C755.259 68.2333 755.492 69.1667 755.959 69.9C756.492 70.6333 757.459 71 758.859 71C759.792 71 760.859 70.9 762.059 70.7C763.259 70.5 764.492 70.2667 765.759 70L766.659 76C766.126 76.2 765.192 76.4667 763.859 76.8C762.592 77.1333 761.192 77.4333 759.659 77.7C758.126 78.0333 756.659 78.2 755.259 78.2C753.259 78.2 751.492 77.9 749.959 77.3C748.492 76.7667 747.359 75.8 746.559 74.4C745.759 73 745.359 71.1667 745.359 68.9C745.359 68.5 745.392 68.0667 745.459 67.6C745.526 67.1333 745.559 66.7 745.559 66.3C745.626 65.9 745.659 65.6 745.659 65.4L749.759 34.9H742.859L743.859 27.7C745.992 27.7 747.759 27.3 749.159 26.5C750.626 25.6333 751.892 24.2 752.959 22.2C754.092 20.2 755.226 17.4 756.359 13.8H763.759ZM799.239 26.4C801.839 26.4 804.239 26.8 806.439 27.6C808.639 28.4 810.406 29.6333 811.739 31.3C813.139 32.9667 813.839 35.1667 813.839 37.9C813.839 40.3667 813.173 42.7667 811.839 45.1C810.573 47.4333 808.606 49.5333 805.939 51.4C803.273 53.2667 799.906 54.7333 795.839 55.8C791.773 56.8667 786.973 57.3333 781.439 57.2V50.1C784.573 50.3 787.473 50.1 790.139 49.5C792.873 48.9 795.239 48.0333 797.239 46.9C799.239 45.7667 800.806 44.4333 801.939 42.9C803.073 41.3667 803.639 39.7667 803.639 38.1C803.639 36.7 803.139 35.6 802.139 34.8C801.139 34 799.839 33.6 798.239 33.6C795.706 33.6 793.473 34.2333 791.539 35.5C789.606 36.7667 787.973 38.4667 786.639 40.6C785.373 42.6667 784.406 45 783.739 47.6C783.073 50.1333 782.739 52.7 782.739 55.3C782.739 60.5667 783.839 64.4 786.039 66.8C788.306 69.2 791.273 70.4 794.939 70.4C796.939 70.4 799.139 70.0667 801.539 69.4C803.939 68.6667 806.406 67.6667 808.939 66.4L812.039 72.2C811.373 72.6667 810.439 73.2333 809.239 73.9C808.106 74.5667 806.739 75.2333 805.139 75.9C803.539 76.5667 801.739 77.1333 799.739 77.6C797.806 78.0667 795.739 78.3 793.539 78.3C788.606 78.3 784.606 77.3 781.539 75.3C778.539 73.3 776.339 70.6667 774.939 67.4C773.539 64.0667 772.839 60.4 772.839 56.4C772.839 52.8 773.406 49.2333 774.539 45.7C775.673 42.1 777.373 38.8667 779.639 36C781.906 33.0667 784.673 30.7333 787.939 29C791.206 27.2667 794.973 26.4 799.239 26.4Z" fill="black"/>
</svg>
